<svg xmlns="http://www.w3.org/2000/svg" xmlns:v="https://svgstorm.com"
viewBox = "0 0 735 736"
width="735"
height="736">
<g fill="None" fill-opacity="0.0" stroke="#000000" stroke-opacity="0.00" stroke-width="0.3"><path d="
M 0.00 736.00 
L 350.00 736.00
C 304.30 731.90 251.93 718.18 211.77 697.23 C 171.61 676.28 141.41 655.77 109.75 622.25 C 78.09 588.73 58.66 558.05 39.08 515.92 C 19.49 473.80 8.97 416.71 9.00 368.00 C 9.03 319.29 19.28 262.69 38.78 220.78 C 58.27 178.86 77.48 147.36 109.25 114.25 C 141.01 81.14 170.68 59.08 211.08 39.08 C 251.47 19.07 304.09 1.00 351.00 1.00
C 350.96 1.00 351.00 0.00 351.00 0.00
L 0.00 0.00
L 0.00 736.00 Z"/>
</g>
<g fill="None" fill-opacity="0.0" stroke="#0091FF" stroke-opacity="0.17" stroke-width="0.3"><path d="
M 351.00 1.00 
C 355.67 1.00 360.33 1.00 365.00 1.00
C 364.96 1.00 365.00 0.00 365.00 0.00
L 351.00 0.00
C 351.00 0.00 350.96 1.00 351.00 1.00 Z"/>
</g>
<g fill="None" fill-opacity="0.0" stroke="#0091FF" stroke-opacity="0.53" stroke-width="0.3"><path d="
M 365.00 1.00 
C 372.50 1.00 381.33 1.83 388.00 0.00
L 365.00 0.00
C 365.00 0.00 364.96 1.00 365.00 1.00 Z"/>
</g>
<g fill="None" fill-opacity="0.0" stroke="#0092FF" stroke-opacity="0.92" stroke-width="0.3"><path d="
M 365.00 1.00 
C 360.33 1.00 355.67 1.00 351.00 1.00
C 304.09 1.00 251.47 19.07 211.08 39.08 C 170.68 59.08 141.01 81.14 109.25 114.25 C 77.48 147.36 58.27 178.86 38.78 220.78 C 19.28 262.69 9.03 319.29 9.00 368.00 C 8.97 416.71 19.49 473.80 39.08 515.92 C 58.66 558.05 78.09 588.73 109.75 622.25 C 141.41 655.77 171.61 676.28 211.77 697.23 C 251.93 718.18 304.30 731.90 350.00 736.00
L 351.00 736.00
C 350.62 733.01 360.60 735.00 365.00 735.00
C 371.50 735.00 379.33 734.17 385.00 736.00
L 392.00 736.00
C 394.76 734.25 399.49 735.00 403.00 735.00
C 442.39 735.00 485.16 721.02 520.22 707.22 C 555.29 693.42 581.85 675.01 611.00 652.00
C 605.41 646.15 587.47 653.87 581.00 648.00
C 570.80 650.72 564.07 661.81 553.77 665.77 C 543.47 669.73 534.64 677.62 523.77 681.77 C 512.90 685.92 502.43 691.05 490.93 694.93 C 479.42 698.80 467.31 702.13 454.98 704.98 C 442.64 707.82 429.58 710.03 416.33 711.33 C 403.08 712.63 386.90 714.70 373.00 714.00 C 359.10 713.30 343.28 712.64 330.00 711.00 C 316.72 709.36 304.09 706.07 291.78 703.22 C 279.47 700.38 268.33 696.97 256.98 693.02 C 245.62 689.08 235.55 683.74 224.92 679.08 C 214.30 674.42 204.93 668.56 195.25 662.75 C 185.58 656.93 176.64 650.92 167.77 644.23 C 158.90 637.54 151.58 631.14 143.25 623.75 C 134.91 616.37 128.36 608.26 120.70 600.30 C 113.03 592.35 106.29 584.15 99.70 575.30 C 93.10 566.45 86.71 557.64 81.08 547.92 C 75.44 538.21 70.00 529.50 65.08 518.92 C 60.16 508.35 55.58 497.84 51.68 486.32 C 47.78 474.80 44.19 463.34 41.02 450.98 C 37.86 438.61 35.59 425.36 34.00 412.00 C 32.41 398.64 31.01 383.11 31.00 369.00 C 30.99 354.89 32.13 340.07 33.78 326.78 C 35.42 313.49 37.08 299.65 40.33 287.33 C 43.58 275.00 46.93 263.45 50.93 251.93 C 54.93 240.40 58.99 229.56 63.93 218.93 C 68.86 208.29 74.36 199.69 79.92 189.92 C 85.48 180.15 91.86 171.25 98.25 162.25 C 104.65 153.26 111.82 145.41 119.25 137.25 C 126.67 129.09 133.67 121.43 141.75 113.75 C 149.83 106.08 157.36 99.80 166.23 93.23 C 175.10 86.66 183.53 79.90 193.23 74.23 C 202.93 68.56 212.20 62.60 222.69 57.69 C 233.19 52.79 243.77 48.03 255.07 44.07 C 266.38 40.11 276.84 36.01 289.07 33.07 C 301.31 30.14 314.55 27.48 327.67 25.67 C 340.79 23.86 356.19 22.44 370.00 22.00 C 383.81 21.56 400.73 22.68 414.00 24.00 C 427.27 25.31 440.21 27.80 452.67 30.33 C 465.14 32.85 477.04 36.60 488.68 40.32 C 500.32 44.04 510.82 48.70 521.68 53.32 C 532.53 57.94 541.70 64.18 552.08 68.92 C 562.45 73.67 569.59 82.86 580.00 87.00
C 584.30 87.66 592.22 85.17 597.00 86.00 C 601.78 86.83 609.52 86.84 611.00 84.00
C 581.81 60.96 556.03 42.99 520.93 29.07 C 485.82 15.16 442.54 1.00 403.00 1.00
C 399.50 1.00 394.68 1.81 392.00 0.00
L 388.00 0.00
C 381.33 1.83 372.50 1.00 365.00 1.00 Z"/>
</g>
<g fill="None" fill-opacity="0.0" stroke="#0093FF" stroke-opacity="0.13" stroke-width="0.3"><path d="
M 403.00 1.00 
C 402.96 1.00 403.00 0.00 403.00 0.00
L 392.00 0.00
C 394.68 1.81 399.50 1.00 403.00 1.00 Z"/>
</g>
<g fill="None" fill-opacity="0.0" stroke="#000000" stroke-opacity="0.00" stroke-width="0.3"><path d="
M 403.00 1.00 
C 442.54 1.00 485.82 15.16 520.93 29.07 C 556.03 42.99 581.81 60.96 611.00 84.00
C 612.39 85.10 616.34 84.54 615.00 88.00
C 603.50 87.33 590.68 89.33 580.00 87.00
C 569.59 82.86 562.45 73.67 552.08 68.92 C 541.70 64.18 532.53 57.94 521.68 53.32 C 510.82 48.70 500.32 44.04 488.68 40.32 C 477.04 36.60 465.14 32.85 452.67 30.33 C 440.21 27.80 427.27 25.31 414.00 24.00 C 400.73 22.68 383.81 21.56 370.00 22.00 C 356.19 22.44 340.79 23.86 327.67 25.67 C 314.55 27.48 301.31 30.14 289.07 33.07 C 276.84 36.01 266.38 40.11 255.07 44.07 C 243.77 48.03 233.19 52.79 222.69 57.69 C 212.20 62.60 202.93 68.56 193.23 74.23 C 183.53 79.90 175.10 86.66 166.23 93.23 C 157.36 99.80 149.83 106.08 141.75 113.75 C 133.67 121.43 126.67 129.09 119.25 137.25 C 111.82 145.41 104.65 153.26 98.25 162.25 C 91.86 171.25 85.48 180.15 79.92 189.92 C 74.36 199.69 68.86 208.29 63.93 218.93 C 58.99 229.56 54.93 240.40 50.93 251.93 C 46.93 263.45 43.58 275.00 40.33 287.33 C 37.08 299.65 35.42 313.49 33.78 326.78 C 32.13 340.07 30.99 354.89 31.00 369.00 C 31.01 383.11 32.41 398.64 34.00 412.00 C 35.59 425.36 37.86 438.61 41.02 450.98 C 44.19 463.34 47.78 474.80 51.68 486.32 C 55.58 497.84 60.16 508.35 65.08 518.92 C 70.00 529.50 75.44 538.21 81.08 547.92 C 86.71 557.64 93.10 566.45 99.70 575.30 C 106.29 584.15 113.03 592.35 120.70 600.30 C 128.36 608.26 134.91 616.37 143.25 623.75 C 151.58 631.14 158.90 637.54 167.77 644.23 C 176.64 650.92 185.58 656.93 195.25 662.75 C 204.93 668.56 214.30 674.42 224.92 679.08 C 235.55 683.74 245.62 689.08 256.98 693.02 C 268.33 696.97 279.47 700.38 291.78 703.22 C 304.09 706.07 316.72 709.36 330.00 711.00 C 343.28 712.64 359.10 713.30 373.00 714.00 C 386.90 714.70 403.08 712.63 416.33 711.33 C 429.58 710.03 442.64 707.82 454.98 704.98 C 467.31 702.13 479.42 698.80 490.93 694.93 C 502.43 691.05 512.90 685.92 523.77 681.77 C 534.64 677.62 543.47 669.73 553.77 665.77 C 564.07 661.81 570.80 650.72 581.00 648.00
C 591.58 645.17 604.23 650.12 615.00 648.00
C 615.83 650.59 613.13 651.90 611.00 652.00
C 581.85 675.01 555.29 693.42 520.22 707.22 C 485.16 721.02 442.39 735.00 403.00 735.00
C 403.04 735.00 403.00 736.00 403.00 736.00
L 735.00 736.00
L 735.00 0.00
L 403.00 0.00
C 403.00 0.00 402.96 1.00 403.00 1.00
M 433.00 231.00 
C 434.72 245.19 434.15 261.47 433.00 276.00
C 431.00 301.19 431.00 326.42 431.00 352.00
C 431.00 354.67 431.00 357.33 431.00 360.00
C 431.00 363.60 431.72 366.67 432.00 370.00
C 432.16 371.98 431.91 374.01 432.00 376.00
C 432.60 389.85 435.55 404.78 437.99 418.01 C 440.43 431.23 445.16 442.33 450.77 454.23 C 456.38 466.13 466.63 469.37 470.97 482.03 C 475.32 494.68 463.14 507.26 452.92 512.92 C 442.71 518.59 425.20 524.32 413.92 517.08 C 402.65 509.83 398.25 500.99 394.68 488.32 C 391.10 475.65 388.69 460.91 387.01 446.99 C 385.33 433.07 384.78 415.41 384.00 401.00 C 383.22 386.59 384.84 367.86 385.00 354.00 C 385.16 340.14 388.42 321.39 388.99 308.99 C 389.56 296.59 394.98 270.24 380.00 271.00 C 365.01 271.76 366.15 290.47 361.68 300.68 C 357.21 310.89 353.17 326.00 349.22 337.22 C 345.27 348.45 341.69 361.79 337.07 373.07 C 332.46 384.36 328.51 396.82 322.69 407.70 C 316.88 418.57 312.79 429.10 304.70 438.70 C 296.61 448.29 287.12 454.21 274.99 456.99 C 262.86 459.78 245.20 458.31 236.25 448.75 C 227.30 439.20 221.48 431.25 217.22 418.78 C 212.97 406.31 209.85 393.45 208.01 379.99 C 206.17 366.53 201.59 351.68 201.22 337.78 C 200.85 323.88 195.02 306.91 197.00 293.00 C 198.98 279.09 190.00 260.73 176.92 270.92 C 163.84 281.11 167.46 292.21 162.22 305.22 C 156.98 318.23 156.09 331.30 153.02 345.02 C 149.95 358.75 149.12 372.91 147.22 387.22 C 145.32 401.53 145.78 420.27 146.00 435.00 C 146.22 449.73 146.63 466.10 149.00 480.00 C 151.37 493.90 145.05 508.18 133.25 513.25 C 121.46 518.33 104.54 526.04 93.77 517.23 C 83.00 508.41 90.24 487.06 89.00 474.00 C 87.76 460.94 92.85 443.33 94.00 430.00 C 95.15 416.67 100.31 402.31 101.98 388.98 C 103.65 375.64 107.18 362.16 110.32 349.32 C 113.46 336.49 117.45 323.40 120.92 310.92 C 124.40 298.45 129.43 286.36 133.31 274.31 C 137.18 262.25 141.49 251.02 146.92 239.92 C 152.35 228.82 157.57 219.40 166.25 210.25 C 174.93 201.10 186.65 195.22 199.00 194.00
C 200.24 193.88 201.76 193.88 203.00 194.00
C 218.55 195.53 231.75 204.72 236.32 220.68 C 240.89 236.64 241.36 257.25 243.33 274.67 C 245.30 292.09 248.77 309.12 251.00 327.00 C 253.22 344.89 259.50 357.74 262.78 376.22 C 266.06 394.70 285.21 397.54 292.92 380.92 C 300.63 364.29 305.46 354.90 310.98 338.98 C 316.50 323.05 322.15 309.54 326.93 293.93 C 331.70 278.31 336.70 263.74 342.92 248.92 C 349.15 234.11 353.48 223.04 364.75 210.75 C 376.03 198.46 390.28 191.52 408.22 194.78 C 426.16 198.04 431.06 214.96 433.00 231.00
M 666.00 194.00 
C 687.98 196.66 712.76 203.70 725.92 223.08 C 739.09 242.45 712.72 277.53 691.32 269.68 C 669.93 261.83 644.89 249.47 622.00 250.00 C 599.11 250.53 567.78 256.68 565.01 283.01 C 562.24 309.34 593.32 316.72 613.07 323.93 C 632.83 331.13 662.05 335.35 682.23 344.77 C 702.41 354.20 721.20 366.16 725.98 390.02 C 730.75 413.89 726.55 443.85 714.23 464.23 C 701.91 484.61 691.04 496.86 670.75 509.75 C 650.46 522.64 624.62 528.61 600.00 529.00 C 575.38 529.39 547.52 525.65 527.77 512.23 C 508.02 498.81 491.97 475.70 505.78 451.78 C 519.58 427.86 543.66 449.83 562.08 460.92 C 580.49 472.02 616.78 473.71 638.22 469.22 C 659.66 464.73 686.04 446.32 678.67 421.33 C 671.30 396.34 643.01 394.97 621.98 388.02 C 600.94 381.07 575.46 377.08 555.31 365.69 C 535.15 354.31 519.19 336.88 518.00 313.00 C 516.81 289.12 522.90 264.57 537.77 245.77 C 552.64 226.97 565.85 215.57 587.69 205.69 C 609.54 195.82 640.35 190.90 666.00 194.00 Z"/>
</g>
<g fill="None" fill-opacity="0.0" stroke="#0094FF" stroke-opacity="0.53" stroke-width="0.3"><path d="
M 580.00 87.00 
C 590.68 89.33 603.50 87.33 615.00 88.00
C 616.34 84.54 612.39 85.10 611.00 84.00
C 609.52 86.84 601.78 86.83 597.00 86.00 C 592.22 85.17 584.30 87.66 580.00 87.00 Z"/>
</g>
<g fill="None" fill-opacity="0.0" stroke="#0092FF" stroke-opacity="0.96" stroke-width="0.3"><path d="
M 432.00 376.00 
C 431.81 375.36 430.13 375.24 430.01 372.99 C 429.89 370.73 431.94 370.44 432.00 370.00
C 431.72 366.67 431.00 363.60 431.00 360.00
C 430.34 355.95 427.56 350.98 429.00 346.00
C 431.37 347.03 428.54 351.04 431.00 352.00
C 431.00 326.42 431.00 301.19 433.00 276.00
C 432.42 262.41 432.13 245.70 433.00 231.00
C 431.06 214.96 426.16 198.04 408.22 194.78 C 390.28 191.52 376.03 198.46 364.75 210.75 C 353.48 223.04 349.15 234.11 342.92 248.92 C 336.70 263.74 331.70 278.31 326.93 293.93 C 322.15 309.54 316.50 323.05 310.98 338.98 C 305.46 354.90 300.63 364.29 292.92 380.92 C 285.21 397.54 266.06 394.70 262.78 376.22 C 259.50 357.74 253.22 344.89 251.00 327.00 C 248.77 309.12 245.30 292.09 243.33 274.67 C 241.36 257.25 240.89 236.64 236.32 220.68 C 231.75 204.72 218.55 195.53 203.00 194.00
C 202.95 194.01 199.21 198.10 197.00 196.00
C 197.08 194.74 199.06 195.44 199.00 194.00
C 186.65 195.22 174.93 201.10 166.25 210.25 C 157.57 219.40 152.35 228.82 146.92 239.92 C 141.49 251.02 137.18 262.25 133.31 274.31 C 129.43 286.36 124.40 298.45 120.92 310.92 C 117.45 323.40 113.46 336.49 110.32 349.32 C 107.18 362.16 103.65 375.64 101.98 388.98 C 100.31 402.31 95.15 416.67 94.00 430.00 C 92.85 443.33 87.76 460.94 89.00 474.00 C 90.24 487.06 83.00 508.41 93.77 517.23 C 104.54 526.04 121.46 518.33 133.25 513.25 C 145.05 508.18 151.37 493.90 149.00 480.00 C 146.63 466.10 146.22 449.73 146.00 435.00 C 145.78 420.27 145.32 401.53 147.22 387.22 C 149.12 372.91 149.95 358.75 153.02 345.02 C 156.09 331.30 156.98 318.23 162.22 305.22 C 167.46 292.21 163.84 281.11 176.92 270.92 C 190.00 260.73 198.98 279.09 197.00 293.00 C 195.02 306.91 200.85 323.88 201.22 337.78 C 201.59 351.68 206.17 366.53 208.01 379.99 C 209.85 393.45 212.97 406.31 217.22 418.78 C 221.48 431.25 227.30 439.20 236.25 448.75 C 245.20 458.31 262.86 459.78 274.99 456.99 C 287.12 454.21 296.61 448.29 304.70 438.70 C 312.79 429.10 316.88 418.57 322.69 407.70 C 328.51 396.82 332.46 384.36 337.07 373.07 C 341.69 361.79 345.27 348.45 349.22 337.22 C 353.17 326.00 357.21 310.89 361.68 300.68 C 366.15 290.47 365.01 271.76 380.00 271.00 C 394.98 270.24 389.56 296.59 388.99 308.99 C 388.42 321.39 385.16 340.14 385.00 354.00 C 384.84 367.86 383.22 386.59 384.00 401.00 C 384.78 415.41 385.33 433.07 387.01 446.99 C 388.69 460.91 391.10 475.65 394.68 488.32 C 398.25 500.99 402.65 509.83 413.92 517.08 C 425.20 524.32 442.71 518.59 452.92 512.92 C 463.14 507.26 475.32 494.68 470.97 482.03 C 466.63 469.37 456.38 466.13 450.77 454.23 C 445.16 442.33 440.43 431.23 437.99 418.01 C 435.55 404.78 432.60 389.85 432.00 376.00 Z"/>
</g>
<g fill="None" fill-opacity="0.0" stroke="#008AFF" stroke-opacity="0.21" stroke-width="0.3"><path d="
M 203.00 194.00 
C 201.76 193.88 200.24 193.88 199.00 194.00
C 199.06 195.44 197.08 194.74 197.00 196.00
C 199.21 198.10 202.95 194.01 203.00 194.00 Z"/>
</g>
<g fill="None" fill-opacity="0.0" stroke="#0092FF" stroke-opacity="0.97" stroke-width="0.3"><path d="
M 666.00 194.00 
C 640.35 190.90 609.54 195.82 587.69 205.69 C 565.85 215.57 552.64 226.97 537.77 245.77 C 522.90 264.57 516.81 289.12 518.00 313.00 C 519.19 336.88 535.15 354.31 555.31 365.69 C 575.46 377.08 600.94 381.07 621.98 388.02 C 643.01 394.97 671.30 396.34 678.67 421.33 C 686.04 446.32 659.66 464.73 638.22 469.22 C 616.78 473.71 580.49 472.02 562.08 460.92 C 543.66 449.83 519.58 427.86 505.78 451.78 C 491.97 475.70 508.02 498.81 527.77 512.23 C 547.52 525.65 575.38 529.39 600.00 529.00 C 624.62 528.61 650.46 522.64 670.75 509.75 C 691.04 496.86 701.91 484.61 714.23 464.23 C 726.55 443.85 730.75 413.89 725.98 390.02 C 721.20 366.16 702.41 354.20 682.23 344.77 C 662.05 335.35 632.83 331.13 613.07 323.93 C 593.32 316.72 562.24 309.34 565.01 283.01 C 567.78 256.68 599.11 250.53 622.00 250.00 C 644.89 249.47 669.93 261.83 691.32 269.68 C 712.72 277.53 739.09 242.45 725.92 223.08 C 712.76 203.70 687.98 196.66 666.00 194.00 Z"/>
</g>
<g fill="None" fill-opacity="0.0" stroke="#0093FF" stroke-opacity="0.46" stroke-width="0.3"><path d="
M 433.00 276.00 
C 434.15 261.47 434.72 245.19 433.00 231.00
C 432.13 245.70 432.42 262.41 433.00 276.00 Z"/>
</g>
<g fill="None" fill-opacity="0.0" stroke="#0091FF" stroke-opacity="0.53" stroke-width="0.3"><path d="
M 431.00 360.00 
C 431.00 357.33 431.00 354.67 431.00 352.00
C 428.54 351.04 431.37 347.03 429.00 346.00
C 427.56 350.98 430.34 355.95 431.00 360.00 Z"/>
</g>
<g fill="None" fill-opacity="0.0" stroke="#0092FF" stroke-opacity="0.45" stroke-width="0.3"><path d="
M 432.00 376.00 
C 431.91 374.01 432.16 371.98 432.00 370.00
C 431.94 370.44 429.89 370.73 430.01 372.99 C 430.13 375.24 431.81 375.36 432.00 376.00 Z"/>
</g>
<g fill="None" fill-opacity="0.0" stroke="#0094FF" stroke-opacity="0.54" stroke-width="0.3"><path d="
M 611.00 652.00 
C 613.13 651.90 615.83 650.59 615.00 648.00
C 604.23 650.12 591.58 645.17 581.00 648.00
C 587.47 653.87 605.41 646.15 611.00 652.00 Z"/>
</g>
<g fill="None" fill-opacity="0.0" stroke="#0098FF" stroke-opacity="0.29" stroke-width="0.3"><path d="
M 351.00 736.00 
L 365.00 736.00
C 365.00 735.50 365.00 735.00 365.00 735.00
C 360.60 735.00 350.62 733.01 351.00 736.00 Z"/>
</g>
<g fill="None" fill-opacity="0.0" stroke="#0091FF" stroke-opacity="0.53" stroke-width="0.3"><path d="
M 365.00 736.00 
L 385.00 736.00
C 379.33 734.17 371.50 735.00 365.00 735.00
C 365.00 735.00 365.00 735.50 365.00 736.00 Z"/>
</g>
<g fill="None" fill-opacity="0.0" stroke="#0092FF" stroke-opacity="0.12" stroke-width="0.3"><path d="
M 392.00 736.00 
L 403.00 736.00
C 403.00 736.00 403.04 735.00 403.00 735.00
C 399.49 735.00 394.76 734.25 392.00 736.00 Z"/>
</g>
<g fill="#000000" fill-opacity="0.00" stroke="None">
<path d="
M 0.00 736.00 
L 350.00 736.00
C 304.30 731.90 251.93 718.18 211.77 697.23 C 171.61 676.28 141.41 655.77 109.75 622.25 C 78.09 588.73 58.66 558.05 39.08 515.92 C 19.49 473.80 8.97 416.71 9.00 368.00 C 9.03 319.29 19.28 262.69 38.78 220.78 C 58.27 178.86 77.48 147.36 109.25 114.25 C 141.01 81.14 170.68 59.08 211.08 39.08 C 251.47 19.07 304.09 1.00 351.00 1.00
C 350.96 1.00 351.00 0.00 351.00 0.00
L 0.00 0.00
L 0.00 736.00 Z"/>
</g>
<g fill="#0091FF" fill-opacity="0.17" stroke="None">
<path d="
M 351.00 1.00 
C 355.67 1.00 360.33 1.00 365.00 1.00
C 364.96 1.00 365.00 0.00 365.00 0.00
L 351.00 0.00
C 351.00 0.00 350.96 1.00 351.00 1.00 Z"/>
</g>
<g fill="#0091FF" fill-opacity="0.53" stroke="None">
<path d="
M 365.00 1.00 
C 372.50 1.00 381.33 1.83 388.00 0.00
L 365.00 0.00
C 365.00 0.00 364.96 1.00 365.00 1.00 Z"/>
</g>
<g fill="#0092FF" fill-opacity="0.92" stroke="None">
<path d="
M 365.00 1.00 
C 360.33 1.00 355.67 1.00 351.00 1.00
C 304.09 1.00 251.47 19.07 211.08 39.08 C 170.68 59.08 141.01 81.14 109.25 114.25 C 77.48 147.36 58.27 178.86 38.78 220.78 C 19.28 262.69 9.03 319.29 9.00 368.00 C 8.97 416.71 19.49 473.80 39.08 515.92 C 58.66 558.05 78.09 588.73 109.75 622.25 C 141.41 655.77 171.61 676.28 211.77 697.23 C 251.93 718.18 304.30 731.90 350.00 736.00
L 351.00 736.00
C 350.62 733.01 360.60 735.00 365.00 735.00
C 371.50 735.00 379.33 734.17 385.00 736.00
L 392.00 736.00
C 394.76 734.25 399.49 735.00 403.00 735.00
C 442.39 735.00 485.16 721.02 520.22 707.22 C 555.29 693.42 581.85 675.01 611.00 652.00
C 605.41 646.15 587.47 653.87 581.00 648.00
C 570.80 650.72 564.07 661.81 553.77 665.77 C 543.47 669.73 534.64 677.62 523.77 681.77 C 512.90 685.92 502.43 691.05 490.93 694.93 C 479.42 698.80 467.31 702.13 454.98 704.98 C 442.64 707.82 429.58 710.03 416.33 711.33 C 403.08 712.63 386.90 714.70 373.00 714.00 C 359.10 713.30 343.28 712.64 330.00 711.00 C 316.72 709.36 304.09 706.07 291.78 703.22 C 279.47 700.38 268.33 696.97 256.98 693.02 C 245.62 689.08 235.55 683.74 224.92 679.08 C 214.30 674.42 204.93 668.56 195.25 662.75 C 185.58 656.93 176.64 650.92 167.77 644.23 C 158.90 637.54 151.58 631.14 143.25 623.75 C 134.91 616.37 128.36 608.26 120.70 600.30 C 113.03 592.35 106.29 584.15 99.70 575.30 C 93.10 566.45 86.71 557.64 81.08 547.92 C 75.44 538.21 70.00 529.50 65.08 518.92 C 60.16 508.35 55.58 497.84 51.68 486.32 C 47.78 474.80 44.19 463.34 41.02 450.98 C 37.86 438.61 35.59 425.36 34.00 412.00 C 32.41 398.64 31.01 383.11 31.00 369.00 C 30.99 354.89 32.13 340.07 33.78 326.78 C 35.42 313.49 37.08 299.65 40.33 287.33 C 43.58 275.00 46.93 263.45 50.93 251.93 C 54.93 240.40 58.99 229.56 63.93 218.93 C 68.86 208.29 74.36 199.69 79.92 189.92 C 85.48 180.15 91.86 171.25 98.25 162.25 C 104.65 153.26 111.82 145.41 119.25 137.25 C 126.67 129.09 133.67 121.43 141.75 113.75 C 149.83 106.08 157.36 99.80 166.23 93.23 C 175.10 86.66 183.53 79.90 193.23 74.23 C 202.93 68.56 212.20 62.60 222.69 57.69 C 233.19 52.79 243.77 48.03 255.07 44.07 C 266.38 40.11 276.84 36.01 289.07 33.07 C 301.31 30.14 314.55 27.48 327.67 25.67 C 340.79 23.86 356.19 22.44 370.00 22.00 C 383.81 21.56 400.73 22.68 414.00 24.00 C 427.27 25.31 440.21 27.80 452.67 30.33 C 465.14 32.85 477.04 36.60 488.68 40.32 C 500.32 44.04 510.82 48.70 521.68 53.32 C 532.53 57.94 541.70 64.18 552.08 68.92 C 562.45 73.67 569.59 82.86 580.00 87.00
C 584.30 87.66 592.22 85.17 597.00 86.00 C 601.78 86.83 609.52 86.84 611.00 84.00
C 581.81 60.96 556.03 42.99 520.93 29.07 C 485.82 15.16 442.54 1.00 403.00 1.00
C 399.50 1.00 394.68 1.81 392.00 0.00
L 388.00 0.00
C 381.33 1.83 372.50 1.00 365.00 1.00 Z"/>
</g>
<g fill="#0093FF" fill-opacity="0.13" stroke="None">
<path d="
M 403.00 1.00 
C 402.96 1.00 403.00 0.00 403.00 0.00
L 392.00 0.00
C 394.68 1.81 399.50 1.00 403.00 1.00 Z"/>
</g>
<g fill="#000000" fill-opacity="0.00" stroke="None">
<path d="
M 403.00 1.00 
C 442.54 1.00 485.82 15.16 520.93 29.07 C 556.03 42.99 581.81 60.96 611.00 84.00
C 612.39 85.10 616.34 84.54 615.00 88.00
C 603.50 87.33 590.68 89.33 580.00 87.00
C 569.59 82.86 562.45 73.67 552.08 68.92 C 541.70 64.18 532.53 57.94 521.68 53.32 C 510.82 48.70 500.32 44.04 488.68 40.32 C 477.04 36.60 465.14 32.85 452.67 30.33 C 440.21 27.80 427.27 25.31 414.00 24.00 C 400.73 22.68 383.81 21.56 370.00 22.00 C 356.19 22.44 340.79 23.86 327.67 25.67 C 314.55 27.48 301.31 30.14 289.07 33.07 C 276.84 36.01 266.38 40.11 255.07 44.07 C 243.77 48.03 233.19 52.79 222.69 57.69 C 212.20 62.60 202.93 68.56 193.23 74.23 C 183.53 79.90 175.10 86.66 166.23 93.23 C 157.36 99.80 149.83 106.08 141.75 113.75 C 133.67 121.43 126.67 129.09 119.25 137.25 C 111.82 145.41 104.65 153.26 98.25 162.25 C 91.86 171.25 85.48 180.15 79.92 189.92 C 74.36 199.69 68.86 208.29 63.93 218.93 C 58.99 229.56 54.93 240.40 50.93 251.93 C 46.93 263.45 43.58 275.00 40.33 287.33 C 37.08 299.65 35.42 313.49 33.78 326.78 C 32.13 340.07 30.99 354.89 31.00 369.00 C 31.01 383.11 32.41 398.64 34.00 412.00 C 35.59 425.36 37.86 438.61 41.02 450.98 C 44.19 463.34 47.78 474.80 51.68 486.32 C 55.58 497.84 60.16 508.35 65.08 518.92 C 70.00 529.50 75.44 538.21 81.08 547.92 C 86.71 557.64 93.10 566.45 99.70 575.30 C 106.29 584.15 113.03 592.35 120.70 600.30 C 128.36 608.26 134.91 616.37 143.25 623.75 C 151.58 631.14 158.90 637.54 167.77 644.23 C 176.64 650.92 185.58 656.93 195.25 662.75 C 204.93 668.56 214.30 674.42 224.92 679.08 C 235.55 683.74 245.62 689.08 256.98 693.02 C 268.33 696.97 279.47 700.38 291.78 703.22 C 304.09 706.07 316.72 709.36 330.00 711.00 C 343.28 712.64 359.10 713.30 373.00 714.00 C 386.90 714.70 403.08 712.63 416.33 711.33 C 429.58 710.03 442.64 707.82 454.98 704.98 C 467.31 702.13 479.42 698.80 490.93 694.93 C 502.43 691.05 512.90 685.92 523.77 681.77 C 534.64 677.62 543.47 669.73 553.77 665.77 C 564.07 661.81 570.80 650.72 581.00 648.00
C 591.58 645.17 604.23 650.12 615.00 648.00
C 615.83 650.59 613.13 651.90 611.00 652.00
C 581.85 675.01 555.29 693.42 520.22 707.22 C 485.16 721.02 442.39 735.00 403.00 735.00
C 403.04 735.00 403.00 736.00 403.00 736.00
L 735.00 736.00
L 735.00 0.00
L 403.00 0.00
C 403.00 0.00 402.96 1.00 403.00 1.00
M 433.00 231.00 
C 434.72 245.19 434.15 261.47 433.00 276.00
C 431.00 301.19 431.00 326.42 431.00 352.00
C 431.00 354.67 431.00 357.33 431.00 360.00
C 431.00 363.60 431.72 366.67 432.00 370.00
C 432.16 371.98 431.91 374.01 432.00 376.00
C 432.60 389.85 435.55 404.78 437.99 418.01 C 440.43 431.23 445.16 442.33 450.77 454.23 C 456.38 466.13 466.63 469.37 470.97 482.03 C 475.32 494.68 463.14 507.26 452.92 512.92 C 442.71 518.59 425.20 524.32 413.92 517.08 C 402.65 509.83 398.25 500.99 394.68 488.32 C 391.10 475.65 388.69 460.91 387.01 446.99 C 385.33 433.07 384.78 415.41 384.00 401.00 C 383.22 386.59 384.84 367.86 385.00 354.00 C 385.16 340.14 388.42 321.39 388.99 308.99 C 389.56 296.59 394.98 270.24 380.00 271.00 C 365.01 271.76 366.15 290.47 361.68 300.68 C 357.21 310.89 353.17 326.00 349.22 337.22 C 345.27 348.45 341.69 361.79 337.07 373.07 C 332.46 384.36 328.51 396.82 322.69 407.70 C 316.88 418.57 312.79 429.10 304.70 438.70 C 296.61 448.29 287.12 454.21 274.99 456.99 C 262.86 459.78 245.20 458.31 236.25 448.75 C 227.30 439.20 221.48 431.25 217.22 418.78 C 212.97 406.31 209.85 393.45 208.01 379.99 C 206.17 366.53 201.59 351.68 201.22 337.78 C 200.85 323.88 195.02 306.91 197.00 293.00 C 198.98 279.09 190.00 260.73 176.92 270.92 C 163.84 281.11 167.46 292.21 162.22 305.22 C 156.98 318.23 156.09 331.30 153.02 345.02 C 149.95 358.75 149.12 372.91 147.22 387.22 C 145.32 401.53 145.78 420.27 146.00 435.00 C 146.22 449.73 146.63 466.10 149.00 480.00 C 151.37 493.90 145.05 508.18 133.25 513.25 C 121.46 518.33 104.54 526.04 93.77 517.23 C 83.00 508.41 90.24 487.06 89.00 474.00 C 87.76 460.94 92.85 443.33 94.00 430.00 C 95.15 416.67 100.31 402.31 101.98 388.98 C 103.65 375.64 107.18 362.16 110.32 349.32 C 113.46 336.49 117.45 323.40 120.92 310.92 C 124.40 298.45 129.43 286.36 133.31 274.31 C 137.18 262.25 141.49 251.02 146.92 239.92 C 152.35 228.82 157.57 219.40 166.25 210.25 C 174.93 201.10 186.65 195.22 199.00 194.00
C 200.24 193.88 201.76 193.88 203.00 194.00
C 218.55 195.53 231.75 204.72 236.32 220.68 C 240.89 236.64 241.36 257.25 243.33 274.67 C 245.30 292.09 248.77 309.12 251.00 327.00 C 253.22 344.89 259.50 357.74 262.78 376.22 C 266.06 394.70 285.21 397.54 292.92 380.92 C 300.63 364.29 305.46 354.90 310.98 338.98 C 316.50 323.05 322.15 309.54 326.93 293.93 C 331.70 278.31 336.70 263.74 342.92 248.92 C 349.15 234.11 353.48 223.04 364.75 210.75 C 376.03 198.46 390.28 191.52 408.22 194.78 C 426.16 198.04 431.06 214.96 433.00 231.00
M 666.00 194.00 
C 687.98 196.66 712.76 203.70 725.92 223.08 C 739.09 242.45 712.72 277.53 691.32 269.68 C 669.93 261.83 644.89 249.47 622.00 250.00 C 599.11 250.53 567.78 256.68 565.01 283.01 C 562.24 309.34 593.32 316.72 613.07 323.93 C 632.83 331.13 662.05 335.35 682.23 344.77 C 702.41 354.20 721.20 366.16 725.98 390.02 C 730.75 413.89 726.55 443.85 714.23 464.23 C 701.91 484.61 691.04 496.86 670.75 509.75 C 650.46 522.64 624.62 528.61 600.00 529.00 C 575.38 529.39 547.52 525.65 527.77 512.23 C 508.02 498.81 491.97 475.70 505.78 451.78 C 519.58 427.86 543.66 449.83 562.08 460.92 C 580.49 472.02 616.78 473.71 638.22 469.22 C 659.66 464.73 686.04 446.32 678.67 421.33 C 671.30 396.34 643.01 394.97 621.98 388.02 C 600.94 381.07 575.46 377.08 555.31 365.69 C 535.15 354.31 519.19 336.88 518.00 313.00 C 516.81 289.12 522.90 264.57 537.77 245.77 C 552.64 226.97 565.85 215.57 587.69 205.69 C 609.54 195.82 640.35 190.90 666.00 194.00 Z"/>
</g>
<g fill="#0094FF" fill-opacity="0.53" stroke="None">
<path d="
M 580.00 87.00 
C 590.68 89.33 603.50 87.33 615.00 88.00
C 616.34 84.54 612.39 85.10 611.00 84.00
C 609.52 86.84 601.78 86.83 597.00 86.00 C 592.22 85.17 584.30 87.66 580.00 87.00 Z"/>
</g>
<g fill="#0092FF" fill-opacity="0.96" stroke="None">
<path d="
M 432.00 376.00 
C 431.81 375.36 430.13 375.24 430.01 372.99 C 429.89 370.73 431.94 370.44 432.00 370.00
C 431.72 366.67 431.00 363.60 431.00 360.00
C 430.34 355.95 427.56 350.98 429.00 346.00
C 431.37 347.03 428.54 351.04 431.00 352.00
C 431.00 326.42 431.00 301.19 433.00 276.00
C 432.42 262.41 432.13 245.70 433.00 231.00
C 431.06 214.96 426.16 198.04 408.22 194.78 C 390.28 191.52 376.03 198.46 364.75 210.75 C 353.48 223.04 349.15 234.11 342.92 248.92 C 336.70 263.74 331.70 278.31 326.93 293.93 C 322.15 309.54 316.50 323.05 310.98 338.98 C 305.46 354.90 300.63 364.29 292.92 380.92 C 285.21 397.54 266.06 394.70 262.78 376.22 C 259.50 357.74 253.22 344.89 251.00 327.00 C 248.77 309.12 245.30 292.09 243.33 274.67 C 241.36 257.25 240.89 236.64 236.32 220.68 C 231.75 204.72 218.55 195.53 203.00 194.00
C 202.95 194.01 199.21 198.10 197.00 196.00
C 197.08 194.74 199.06 195.44 199.00 194.00
C 186.65 195.22 174.93 201.10 166.25 210.25 C 157.57 219.40 152.35 228.82 146.92 239.92 C 141.49 251.02 137.18 262.25 133.31 274.31 C 129.43 286.36 124.40 298.45 120.92 310.92 C 117.45 323.40 113.46 336.49 110.32 349.32 C 107.18 362.16 103.65 375.64 101.98 388.98 C 100.31 402.31 95.15 416.67 94.00 430.00 C 92.85 443.33 87.76 460.94 89.00 474.00 C 90.24 487.06 83.00 508.41 93.77 517.23 C 104.54 526.04 121.46 518.33 133.25 513.25 C 145.05 508.18 151.37 493.90 149.00 480.00 C 146.63 466.10 146.22 449.73 146.00 435.00 C 145.78 420.27 145.32 401.53 147.22 387.22 C 149.12 372.91 149.95 358.75 153.02 345.02 C 156.09 331.30 156.98 318.23 162.22 305.22 C 167.46 292.21 163.84 281.11 176.92 270.92 C 190.00 260.73 198.98 279.09 197.00 293.00 C 195.02 306.91 200.85 323.88 201.22 337.78 C 201.59 351.68 206.17 366.53 208.01 379.99 C 209.85 393.45 212.97 406.31 217.22 418.78 C 221.48 431.25 227.30 439.20 236.25 448.75 C 245.20 458.31 262.86 459.78 274.99 456.99 C 287.12 454.21 296.61 448.29 304.70 438.70 C 312.79 429.10 316.88 418.57 322.69 407.70 C 328.51 396.82 332.46 384.36 337.07 373.07 C 341.69 361.79 345.27 348.45 349.22 337.22 C 353.17 326.00 357.21 310.89 361.68 300.68 C 366.15 290.47 365.01 271.76 380.00 271.00 C 394.98 270.24 389.56 296.59 388.99 308.99 C 388.42 321.39 385.16 340.14 385.00 354.00 C 384.84 367.86 383.22 386.59 384.00 401.00 C 384.78 415.41 385.33 433.07 387.01 446.99 C 388.69 460.91 391.10 475.65 394.68 488.32 C 398.25 500.99 402.65 509.83 413.92 517.08 C 425.20 524.32 442.71 518.59 452.92 512.92 C 463.14 507.26 475.32 494.68 470.97 482.03 C 466.63 469.37 456.38 466.13 450.77 454.23 C 445.16 442.33 440.43 431.23 437.99 418.01 C 435.55 404.78 432.60 389.85 432.00 376.00 Z"/>
</g>
<g fill="#008AFF" fill-opacity="0.21" stroke="None">
<path d="
M 203.00 194.00 
C 201.76 193.88 200.24 193.88 199.00 194.00
C 199.06 195.44 197.08 194.74 197.00 196.00
C 199.21 198.10 202.95 194.01 203.00 194.00 Z"/>
</g>
<g fill="#0092FF" fill-opacity="0.97" stroke="None">
<path d="
M 666.00 194.00 
C 640.35 190.90 609.54 195.82 587.69 205.69 C 565.85 215.57 552.64 226.97 537.77 245.77 C 522.90 264.57 516.81 289.12 518.00 313.00 C 519.19 336.88 535.15 354.31 555.31 365.69 C 575.46 377.08 600.94 381.07 621.98 388.02 C 643.01 394.97 671.30 396.34 678.67 421.33 C 686.04 446.32 659.66 464.73 638.22 469.22 C 616.78 473.71 580.49 472.02 562.08 460.92 C 543.66 449.83 519.58 427.86 505.78 451.78 C 491.97 475.70 508.02 498.81 527.77 512.23 C 547.52 525.65 575.38 529.39 600.00 529.00 C 624.62 528.61 650.46 522.64 670.75 509.75 C 691.04 496.86 701.91 484.61 714.23 464.23 C 726.55 443.85 730.75 413.89 725.98 390.02 C 721.20 366.16 702.41 354.20 682.23 344.77 C 662.05 335.35 632.83 331.13 613.07 323.93 C 593.32 316.72 562.24 309.34 565.01 283.01 C 567.78 256.68 599.11 250.53 622.00 250.00 C 644.89 249.47 669.93 261.83 691.32 269.68 C 712.72 277.53 739.09 242.45 725.92 223.08 C 712.76 203.70 687.98 196.66 666.00 194.00 Z"/>
</g>
<g fill="#0093FF" fill-opacity="0.46" stroke="None">
<path d="
M 433.00 276.00 
C 434.15 261.47 434.72 245.19 433.00 231.00
C 432.13 245.70 432.42 262.41 433.00 276.00 Z"/>
</g>
<g fill="#0091FF" fill-opacity="0.53" stroke="None">
<path d="
M 431.00 360.00 
C 431.00 357.33 431.00 354.67 431.00 352.00
C 428.54 351.04 431.37 347.03 429.00 346.00
C 427.56 350.98 430.34 355.95 431.00 360.00 Z"/>
</g>
<g fill="#0092FF" fill-opacity="0.45" stroke="None">
<path d="
M 432.00 376.00 
C 431.91 374.01 432.16 371.98 432.00 370.00
C 431.94 370.44 429.89 370.73 430.01 372.99 C 430.13 375.24 431.81 375.36 432.00 376.00 Z"/>
</g>
<g fill="#0094FF" fill-opacity="0.54" stroke="None">
<path d="
M 611.00 652.00 
C 613.13 651.90 615.83 650.59 615.00 648.00
C 604.23 650.12 591.58 645.17 581.00 648.00
C 587.47 653.87 605.41 646.15 611.00 652.00 Z"/>
</g>
<g fill="#0098FF" fill-opacity="0.29" stroke="None">
<path d="
M 351.00 736.00 
L 365.00 736.00
C 365.00 735.50 365.00 735.00 365.00 735.00
C 360.60 735.00 350.62 733.01 351.00 736.00 Z"/>
</g>
<g fill="#0091FF" fill-opacity="0.53" stroke="None">
<path d="
M 365.00 736.00 
L 385.00 736.00
C 379.33 734.17 371.50 735.00 365.00 735.00
C 365.00 735.00 365.00 735.50 365.00 736.00 Z"/>
</g>
<g fill="#0092FF" fill-opacity="0.12" stroke="None">
<path d="
M 392.00 736.00 
L 403.00 736.00
C 403.00 736.00 403.04 735.00 403.00 735.00
C 399.49 735.00 394.76 734.25 392.00 736.00 Z"/>
</g>
</svg>